<svg width="80" height="80" viewBox="0 0 80 80" fill="none" xmlns="http://www.w3.org/2000/svg">
<path d="M51.3612 48.5H49.1648M51.3612 48.5C51.3612 45.367 50.2795 42.617 48.115 40.45M51.3612 48.5C51.2954 54.6907 46.2313 59.75 40.0245 59.75C33.7959 59.75 28.7386 54.6125 28.7386 48.4C28.7386 42.2227 33.827 37.05 40.0245 37.05M40.0245 37.05L40.0244 41.101M40.0245 37.05C43.1209 37.05 45.8517 38.217 48.115 40.45M48.115 40.45L46.468 42M25.6412 33.05L25.4924 24.75C25.4924 17.4769 31.9848 10.5 40.0499 10.5C48.115 10.5 54.5575 17.4769 54.5575 24.601L54.4586 33.05M25.6412 33.05C21.6459 36.85 19 42.825 19 48.4C19 59.956 28.4491 69.5 40.0245 69.5C51.5804 69.5 61 59.9205 61 48.4C61 42.4466 58.5954 37.2543 54.4586 33.05M25.6412 33.05C33.6036 25.4769 46.482 25.5273 54.4586 33.05M40.0245 45.15C41.7622 45.15 43.2707 46.6549 43.2707 48.4C43.2707 50.116 41.7415 51.65 40.0245 51.65C38.2977 51.65 36.8282 50.1013 36.8282 48.4C36.8282 46.6694 38.2764 45.15 40.0245 45.15Z" stroke="#FF7800" stroke-width="1.5" stroke-linecap="round" stroke-linejoin="round"/>
</svg>
