<svg width="80" height="80" viewBox="0 0 80 80" fill="none" xmlns="http://www.w3.org/2000/svg">
<path d="M28.2425 42.6562L12.6844 58.2142M51.4953 55.3338L54.6948 58.5044C55.4775 59.28 56.7402 59.2764 57.5184 58.4963L64.4498 51.5489M40.4097 51.4297C39.4072 51.1514 38.435 50.7965 37.4931 50.3649L32.9001 54.9579L26.692 54.9485V59.8406C26.692 61.1661 25.6175 62.2406 24.292 62.2406H19.3018V67.6014C19.3018 68.9269 18.2273 70.0014 16.9018 70.0014H11.1103C8.89929 70.0014 7.10764 68.2076 7.11032 65.9966L7.1172 60.3267C7.12009 57.9436 8.06808 55.6588 9.75323 53.9737L26.1752 37.5517C25.5551 35.5026 25.245 33.3504 25.245 31.093C25.245 19.6018 34.6394 9.99805 46.1752 9.99805C57.7064 9.99805 67.1055 19.6115 67.1055 31.093C67.1055 33.7821 66.5848 36.3722 65.6391 38.7612M50.568 31.8743C53.3959 31.8743 55.736 29.4772 55.736 26.6657C55.736 23.8178 53.4281 21.4571 50.568 21.4571C47.7444 21.4571 45.4001 23.8498 45.4001 26.6657C45.4001 29.4453 47.7765 31.8743 50.568 31.8743ZM57.894 39.9312C49.622 39.9312 42.894 46.7044 42.894 54.9659C42.894 63.1948 49.6448 70.0016 57.8941 70.0016C66.1107 70.0016 72.894 63.1717 72.894 54.9658C72.894 46.7274 66.1332 39.9312 57.894 39.9312Z" stroke="#FF7800" stroke-width="1.5" stroke-linecap="round" stroke-linejoin="round"/>
</svg>
