<svg width="80" height="80" viewBox="0 0 80 80" fill="none" xmlns="http://www.w3.org/2000/svg">
<path d="M54.1001 24.95V19.7M54.1001 19.7L45.05 10.7M54.1001 19.7H48.05C46.3932 19.7 45.05 18.3568 45.05 16.7V10.7M45.05 10.7H17.75C14.4363 10.7 11.75 13.3862 11.75 16.7V57.3C11.75 60.6137 14.4363 63.3 17.75 63.3H31.1001M48.6501 62.05C46.2501 59.35 45.0668 55.6833 45.1001 51.05C45.1001 46.9616 48.5595 43.9 52.55 43.9C57.2079 43.9 60.1001 47.5774 60.1001 51.95M56.1001 63.2C53.5668 61.9333 51.7501 60.4666 50.6501 58.8C49.3501 56.8666 48.7501 54.3666 48.8501 51.3C48.8501 49.1164 50.632 47.45 52.8 47.45C54.8785 47.45 56.8 49.201 56.8 51.3C56.8 53.5588 57.369 56.05 60.1001 56.05C62.0314 56.05 63.6501 54.6831 63.6501 52.7C64.0928 46.1704 59.4876 39.8 52.55 39.8C48.0527 39.8 43.8382 42.5286 42.5 46.9C41.3333 50.6666 41.3333 54.3833 42.5 58.05M65.8501 44.45C63.3546 39.2509 58.497 35.7 52.6001 35.7C45.9618 35.7 40.8049 40.0081 38.9001 46.2M52.6501 51.7C52.8168 56.9666 55.4001 59.75 60.4001 60.05M18.8501 51.2H26.25M18.8501 28.7H38.5M18.8501 39.95H28M52.3501 27.55C40.3339 27.55 30.55 37.4808 30.55 49.45C30.55 61.3957 40.3788 71.3 52.3501 71.3C64.3198 71.3 74.25 61.4409 74.25 49.45C74.25 37.4354 64.3647 27.55 52.3501 27.55Z" stroke="rgb(112, 112, 217)" stroke-width="1.5" stroke-linecap="round" stroke-linejoin="round"/>
</svg>
